<svg xmlns="http://www.w3.org/2000/svg" version="1.1" xmlns:xlink="http://www.w3.org/1999/xlink" xmlns:svgjs="http://svgjs.com/svgjs" width="1440" height="560" preserveAspectRatio="none" viewBox="0 0 1440 560"><g mask="url(&quot;#SvgjsMask1255&quot;)" fill="none"><rect width="1440" height="560" x="0" y="0" fill="url(#SvgjsLinearGradient1256)"></rect><path d="M102.25 0C129.5 40.48 83.96 72.47 94.23 140C102.83 196.56 115.4 248.18 140 248.18C165.33 248.18 186.1 197.22 194.09 140C203.42 73.13 150.03 40.11 174.64 0C192.98 -29.89 227.32 0 280 0C341.57 0 387.01 -31.64 403.13 0C422.67 38.36 346.12 77.54 351.32 140C354.56 178.92 378.36 189.35 420 202.76C482.7 222.95 491.01 214.58 560 207.2C631.01 199.6 631.21 193.75 700 172.81C741.6 160.15 780.77 155.19 780.77 140C780.77 125.15 741.77 118.31 700 112.73C631.39 103.57 619.56 136.91 560 110.53C492.29 80.54 445.45 32.14 445.45 0C445.45 -23.13 502.72 0 560 0C630 0 630 0 700 0C770 0 770 0 840 0C910 0 910 0 980 0C1050 0 1050 0 1120 0C1190 0 1190 0 1260 0C1330 0 1330 0 1400 0C1470 0 1505 -35 1540 0C1575 35 1540 70 1540 140C1540 210 1540 210 1540 280C1540 350 1540 350 1540 420C1540 490 1575 525 1540 560C1505 595 1470 560 1400 560C1330 560 1330 560 1260 560C1190 560 1190 560 1120 560C1050 560 1050 560 980 560C910 560 910 560 840 560C785.87 560 780.91 571.61 731.73 560C710.91 555.08 721.16 530.44 700 526.94C635.3 516.25 625.16 548.99 560 531.62C485.16 511.67 472.51 444.03 420 452.31C382.51 458.22 417.42 531.21 380 560C347.42 585.06 330 560 280 560C243.54 560 240.85 569.71 207.08 560C170.85 549.58 170.35 519.75 140 519.75C119.31 519.75 128.58 553.22 105 560C58.58 573.35 22.5 590 0 560C-30 520 0 490 0 420C0 350 0 350 0 280C0 210 0 210 0 140C0 70 -29.55 40.45 0 0C21.58 -29.55 82.38 -29.52 102.25 0" stroke="rgba(255, 147, 3, 1)" stroke-width="2"></path><path d="M1120 118.7C1108.77 118.7 1098.7 129.04 1098.7 140C1098.7 151.64 1108.7 163.9 1120 163.9C1132.59 163.9 1146.49 151.57 1146.49 140C1146.49 128.97 1132.67 118.7 1120 118.7" stroke="rgba(255, 147, 3, 1)" stroke-width="2"></path><path d="M1400 80.43C1375 80.43 1344 114.37 1344 140C1344 160.25 1373.59 172.18 1400 172.18C1420.01 172.18 1436.84 158.86 1436.84 140C1436.84 112.99 1421.42 80.43 1400 80.43" stroke="rgba(255, 147, 3, 1)" stroke-width="2"></path><path d="M840 385C827.19 385 813.24 403.53 813.24 420C813.24 433.85 827.06 445.63 840 445.63C852.1 445.63 863.33 433.69 863.33 420C863.33 403.38 852.23 385 840 385" stroke="rgba(255, 147, 3, 1)" stroke-width="2"></path><path d="M1400 383.08C1375.88 383.08 1358 396.52 1358 420C1358 467.48 1370.19 525 1400 525C1436.59 525 1490.81 461.59 1490.81 420C1490.81 390.63 1442.28 383.08 1400 383.08" stroke="rgba(255, 147, 3, 1)" stroke-width="2"></path><path d="M62.92 0C72.3 48.77 19.76 72.35 26.92 140C34.57 212.35 53.93 213.81 92.54 280C110.47 310.73 108.24 325.57 140 333.85C201.97 350.01 212.9 343.57 280 328.89C336 316.64 333.3 304.86 386.21 280C403.3 271.97 402.48 263.1 420 263.1C445.17 263.1 446.24 270.33 471.58 280C516.24 297.04 518.29 316.52 560 316.52C585.84 316.52 581.73 295.86 606.67 280C651.73 251.35 649.66 242.6 700 227.5C766.33 207.6 779.6 194.1 840 210C879.3 220.35 899.39 249.51 899.39 280C899.39 303.36 864.31 292.96 840 317.69C795.49 362.96 803.94 371.6 761.76 420C733.94 451.92 738.07 466.19 700 478.33C637.19 498.35 623.9 500.88 560 484.32C511.4 471.72 507.99 460.18 475 420C437.99 374.91 446.27 313.79 420 313.79C394.32 313.79 399.93 369.31 371.11 420C329.93 492.42 338.44 545.84 280 560C222.88 573.84 203.34 476 140 476C96.82 476 110.67 533.78 66.96 560C40.67 575.78 10.83 582.65 0 560C-22.65 512.65 0 490 0 420C0 350 0 350 0 280C0 210 0 210 0 140C0 70 -21.71 48.29 0 0C9.75 -21.71 58.84 -21.23 62.92 0" stroke="rgba(255, 147, 3, 1)" stroke-width="2"></path><path d="M273.64 140C241.76 70.21 208.53 48.23 210.72 0C211.71 -21.77 245.36 0 280 0C320.48 0 360.07 -23.6 360.96 0C362.71 46.4 322.74 69.81 285.28 140C282.26 145.65 282.86 151.67 280 151.67C277.04 151.67 276.4 146.04 273.64 140" stroke="rgba(255, 147, 3, 1)" stroke-width="2"></path><path d="M560 49.12C528.13 37.89 509.09 14.28 509.09 0C509.09 -10.28 534.55 0 560 0C630 0 630 0 700 0C770 0 770 0 840 0C910 0 910 0 980 0C1050 0 1050 0 1120 0C1190 0 1190 0 1260 0C1330 0 1330 0 1400 0C1470 0 1505 -35 1540 0C1575 35 1540 70 1540 140C1540 210 1540 210 1540 280C1540 280 1540 280 1540 280C1470 312.31 1464.85 304.4 1400 344.62C1351.98 374.4 1323.73 372.8 1314.25 420C1302.1 480.49 1373.06 517.86 1356.73 560C1345.93 587.86 1308.36 560 1260 560C1208.85 560 1177.16 589.51 1157.69 560C1130.99 519.51 1178.6 486.63 1167.66 420C1159.75 371.83 1142.28 330.4 1120 330.4C1098.45 330.4 1101.02 375.68 1080 420C1046.57 490.48 1052.8 501.64 1011.11 560C1002.8 571.64 995.56 560 980 560C910 560 910 560 840 560C809.2 560 778.4 573.25 778.4 560C778.4 540.72 809.54 527.78 840 494.93C874.45 457.78 876.02 459.05 908.21 420C946.02 374.13 935.72 362.24 980 325.08C1019.12 292.24 1028.89 304.97 1075 280C1098.89 267.06 1095.75 249.27 1120 249.27C1157.62 249.27 1159.56 264.18 1198.75 280C1229.56 292.44 1232.75 305.79 1260 305.79C1273.38 305.79 1266.59 288.94 1280 280C1336.59 242.25 1343.62 251.32 1400 212.41C1445.06 181.32 1482.89 182.45 1482.89 140C1482.89 79.22 1448.19 5.96 1400 5.96C1343.75 5.96 1326.79 67.47 1274 140C1256.79 163.65 1268.14 198.33 1260 198.33C1251.68 198.33 1260.89 162.03 1241.08 140C1190.89 84.17 1177.91 42.61 1120 42.61C1068.67 42.61 1068.34 88.79 1022.61 140C998.34 167.18 1004.96 199.39 980 199.39C948.65 199.39 939.04 174.91 910 140C869.04 90.77 889.6 48.29 840 31.11C784.6 11.92 770.84 62.71 700 67.27C630.84 71.72 623.59 71.53 560 49.12" stroke="rgba(255, 147, 3, 1)" stroke-width="2"></path><path d="M1532.22 560C1532.22 556.6 1537.85 549.23 1540 549.23C1541.74 549.23 1542.26 556.87 1540 560C1538.37 562.26 1532.22 561.99 1532.22 560" stroke="rgba(255, 147, 3, 1)" stroke-width="2"></path><path d="M23.6 0C23.6 26.53 6.06 70 0 70C-5.74 70 -8.82 26.18 0 0C2.98 -8.82 23.6 -8.47 23.6 0" stroke="rgba(255, 147, 3, 1)" stroke-width="2"></path><path d="M280 70C262.29 70 246.8 24.5 246.8 0C246.8 -10.5 263.4 0 280 0C299.4 0 318.8 -11.43 318.8 0C318.8 23.57 298.29 70 280 70" stroke="rgba(255, 147, 3, 1)" stroke-width="2"></path><path d="M700 21.82C651.62 21.82 601.18 5.52 601.18 0C601.18 -5.39 650.59 0 700 0C725.45 0 750.91 -5.23 750.91 0C750.91 5.68 726.48 21.82 700 21.82" stroke="rgba(255, 147, 3, 1)" stroke-width="2"></path><path d="M1260 23.33C1243.01 23.33 1222.67 6.31 1222.67 0C1222.67 -5.35 1241.34 0 1260 0C1270.37 0 1280.74 -4.66 1280.74 0C1280.74 7.01 1272.05 23.33 1260 23.33" stroke="rgba(255, 147, 3, 1)" stroke-width="2"></path><path d="M1528.95 140C1528.95 94.08 1537.23 46.67 1540 46.67C1542.75 46.67 1540 93.34 1540 140C1540 153.55 1542.66 167.1 1540 167.1C1537.13 167.1 1528.95 154.3 1528.95 140" stroke="rgba(255, 147, 3, 1)" stroke-width="2"></path><path d="M0 212.41C8.75 212.41 10.96 249.99 33.22 280C80.96 344.36 74.12 373.27 140 401.15C197.51 425.49 215.3 377.49 280 384.44C303.08 386.92 315.56 400.36 315.56 420C315.56 445.46 307.06 472.74 280 474.63C219.28 478.87 198.19 412.46 140 432.25C72.65 455.15 88.7 505.44 28.91 560C18.7 569.32 2.47 571.98 0 560C-11.98 501.98 0 490 0 420C0 350 0 350 0 280C0 246.2 -7.86 212.41 0 212.41" stroke="rgba(255, 147, 3, 1)" stroke-width="2"></path><path d="M1351.43 280C1351.43 266.55 1375.28 252.64 1400 252.64C1427.9 252.64 1456.67 266.57 1456.67 280C1456.67 293.32 1427.93 306.15 1400 306.15C1375.31 306.15 1351.43 293.31 1351.43 280" stroke="rgba(255, 147, 3, 1)" stroke-width="2"></path><path d="M537.5 420C537.5 407.63 545.71 402.87 560 392.61C626.96 344.54 655.94 295.3 700 303.33C731.08 308.99 710.29 363.62 710.29 420C710.29 426.81 706.89 428.94 700 429.72C631.75 437.45 627.64 441.08 560 437.03C546.39 436.22 537.5 429.84 537.5 420" stroke="rgba(255, 147, 3, 1)" stroke-width="2"></path><path d="M953.08 420C953.08 400.75 965.08 384.41 980 384.41C997.29 384.41 1017.5 399.94 1017.5 420C1017.5 446.9 996.72 478.33 980 478.33C964.51 478.33 953.08 447.71 953.08 420" stroke="rgba(255, 147, 3, 1)" stroke-width="2"></path><path d="M1242.13 420C1245.07 406.4 1252.38 397.89 1260 397.89C1266.56 397.89 1268.06 408.07 1270.5 420C1284.61 489.12 1297.35 503.24 1293.09 560C1292.1 573.24 1276.55 560 1260 560C1242.5 560 1226.78 573.92 1225 560C1217.84 503.92 1227.57 487.46 1242.13 420" stroke="rgba(255, 147, 3, 1)" stroke-width="2"></path><path d="M825.07 560C825.07 555.33 830.83 544.23 840 544.23C857.61 544.23 878.62 555.91 878.62 560C878.62 563.79 859.31 560 840 560C832.54 560 825.07 563.21 825.07 560" stroke="rgba(255, 147, 3, 1)" stroke-width="2"></path></g><defs><mask id="SvgjsMask1255"><rect width="1440" height="560" fill="#ffffff"></rect></mask><linearGradient x1="100%" y1="50%" x2="0%" y2="50%" gradientUnits="userSpaceOnUse" id="SvgjsLinearGradient1256"><stop stop-color="#0e2a47" offset="0"></stop><stop stop-color="rgba(79, 51, 51, 1)" offset="0"></stop><stop stop-color="rgba(79, 51, 51, 1)" offset="1"></stop></linearGradient></defs></svg>