<svg xmlns="http://www.w3.org/2000/svg" version="1.1" xmlns:xlink="http://www.w3.org/1999/xlink" xmlns:svgjs="http://svgjs.com/svgjs" width="1440" height="560" preserveAspectRatio="none" viewBox="0 0 1440 560"><g mask="url(&quot;#SvgjsMask1206&quot;)" fill="none"><rect width="1440" height="560" x="0" y="0" fill="url(#SvgjsLinearGradient1207)"></rect><path d="M1440 0L1253.06 0L1440 125.53z" fill="rgba(255, 255, 255, .1)"></path><path d="M1253.06 0L1440 125.53L1440 136.65L1235.58 0z" fill="rgba(255, 255, 255, .075)"></path><path d="M1235.58 0L1440 136.65L1440 271.28L854.74 0z" fill="rgba(255, 255, 255, .05)"></path><path d="M854.74 0L1440 271.28L1440 300.85999999999996L695.41 0z" fill="rgba(255, 255, 255, .025)"></path><path d="M0 560L44.82 560L0 354.90999999999997z" fill="rgba(0, 0, 0, .1)"></path><path d="M0 354.90999999999997L44.82 560L418.63 560L0 309.7z" fill="rgba(0, 0, 0, .075)"></path><path d="M0 309.7L418.63 560L449.9 560L0 307.72999999999996z" fill="rgba(0, 0, 0, .05)"></path><path d="M0 307.73L449.9 560L653.13 560L0 299.48z" fill="rgba(0, 0, 0, .025)"></path></g><defs><mask id="SvgjsMask1206"><rect width="1440" height="560" fill="#ffffff"></rect></mask><linearGradient x1="15.28%" y1="-39.29%" x2="84.72%" y2="139.29%" gradientUnits="userSpaceOnUse" id="SvgjsLinearGradient1207"><stop stop-color="rgba(14, 42, 71, 1)" offset="0"></stop><stop stop-color="rgba(79, 67, 51, 1)" offset="0"></stop></linearGradient></defs></svg>